<?xml version="1.0" encoding="UTF-8" standalone="no"?>
<svg
   xmlns:dc="http://purl.org/dc/elements/1.1/"
   xmlns:cc="http://creativecommons.org/ns#"
   xmlns:rdf="http://www.w3.org/1999/02/22-rdf-syntax-ns#"
   xmlns:svg="http://www.w3.org/2000/svg"
   xmlns="http://www.w3.org/2000/svg"
   viewBox="0 0 289.23599 290.30533"
   height="290.30533"
   width="289.23599"
   xml:space="preserve"
   id="svg2"
   version="1.1"><metadata
     id="metadata8"><rdf:RDF><cc:Work
         rdf:about=""><dc:format>image/svg+xml</dc:format><dc:type
           rdf:resource="http://purl.org/dc/dcmitype/StillImage" /></cc:Work></rdf:RDF></metadata><defs
     id="defs6"><linearGradient
       id="linearGradient28"
       spreadMethod="pad"
       gradientTransform="matrix(-48.111191,-55.578148,-55.578148,48.111191,132.35358,172.09373)"
       gradientUnits="userSpaceOnUse"
       y2="0"
       x2="1"
       y1="0"
       x1="0"><stop
         id="stop24"
         offset="0"
         style="stop-opacity:1;stop-color:#fce089" /><stop
         id="stop26"
         offset="1"
         style="stop-opacity:1;stop-color:#f9b434" /></linearGradient><clipPath
       id="clipPath38"
       clipPathUnits="userSpaceOnUse"><path
         id="path36"
         d="M 0,217.729 H 216.927 V 0 H 0 Z" /></clipPath></defs><g
     transform="matrix(1.3333333,0,0,-1.3333333,0,290.30533)"
     id="g10"><g
       id="g12"><g
         id="g14"><g
           id="g20"><g
             id="g22"><path
               id="path30"
               style="fill:url(#linearGradient28);stroke:none"
               d="m 46.393,144.373 c 6.426,-3.685 12.852,-7.37 19.278,-11.056 v 0 c 14.123,8.079 28.246,16.16 42.369,24.239 v 0 c 0,0 -0.001,10e-4 -0.001,0.003 v 0 h 0.001 c 0,0 15.221,-8.463 43.216,-24.03 v 0 l 19.065,10.844 c -20.442,11.908 -40.886,23.814 -61.328,35.721 v 0 C 88.126,168.187 67.26,156.281 46.393,144.373" /></g></g></g></g><g
       id="g32"><g
         clip-path="url(#clipPath38)"
         id="g34"><g
           transform="translate(65.6711,84.2)"
           id="g40"><path
             id="path42"
             style="fill:#3c7baf;fill-opacity:1;fill-rule:nonzero;stroke:none"
             d="M 0,0 42.792,-24.452 C 42.686,-31.894 42.58,-39.336 42.474,-46.778 21.82,-34.8 1.165,-22.822 -19.49,-10.844 -12.993,-7.229 -6.496,-3.615 0,0" /></g><g
           transform="translate(170.5331,73.5687)"
           id="g44"><path
             id="path46"
             style="fill:#59abd2;fill-opacity:1;fill-rule:nonzero;stroke:none"
             d="m 0,0 c -20.796,-12.049 -41.592,-24.098 -62.388,-36.146 0.106,7.441 0.212,14.883 0.318,22.325 14.264,8.222 28.528,16.443 42.792,24.665 C -12.852,7.229 -6.426,3.615 0,0" /></g><g
           transform="translate(46.3935,144.3733)"
           id="g48"><path
             id="path50"
             style="fill:#f3605f;fill-opacity:1;fill-rule:nonzero;stroke:none"
             d="M 0,0 C 6.426,-3.686 12.852,-7.371 19.278,-11.057 V -60.173 C 12.781,-63.788 6.285,-67.403 -0.212,-71.017 -0.141,-47.345 -0.071,-23.672 0,0" /></g><g
           transform="translate(170.5331,73.5687)"
           id="g52"><path
             id="path54"
             style="fill:#c2e364;fill-opacity:1;fill-rule:nonzero;stroke:none"
             d="m 0,0 c -6.426,3.615 -12.852,7.229 -19.278,10.844 v 48.904 0.213 L -0.212,70.805 C -0.141,47.203 -0.071,23.602 0,0" /></g><g
           transform="translate(130.7067,145.0111)"
           id="g56"><path
             id="path58"
             style="fill:#f79927;fill-opacity:1;fill-rule:nonzero;stroke:none"
             d="m 0,0 c -0.071,-7.725 -0.141,-15.451 -0.212,-23.176 l -22.137,12.332 c -0.106,7.796 -0.212,15.593 -0.318,23.389 C -15.111,8.363 -7.556,4.182 0,0" /></g><g
           transform="translate(151.2554,133.5293)"
           id="g60"><path
             id="path62"
             style="fill:#f6b248;fill-opacity:1;fill-rule:nonzero;stroke:none"
             d="m 0,0 c -6.92,-3.898 -13.84,-7.796 -20.761,-11.694 0.071,7.725 0.142,15.45 0.212,23.176 C -13.711,7.644 -6.682,4.119 0,0" /></g><g
           transform="translate(87.4909,145.8617)"
           id="g64"><path
             id="path66"
             style="fill:#e58220;fill-opacity:1;fill-rule:nonzero;stroke:none"
             d="M 0,0 C 6.85,3.898 13.699,7.796 20.549,11.694 20.655,3.898 20.761,-3.898 20.866,-11.694 13.911,-7.796 6.955,-3.898 0,0" /></g><g
           transform="translate(108.4633,83.5621)"
           id="g68"><path
             id="path70"
             style="fill:#57c3c9;fill-opacity:1;fill-rule:nonzero;stroke:none"
             d="M 0,0 V -23.814 L -42.792,0.638 c 6.849,3.969 13.699,7.938 20.549,11.907 C -14.829,8.363 -7.414,4.182 0,0" /></g><g
           transform="translate(130.7067,96.1071)"
           id="g72"><path
             id="path74"
             style="fill:#b5e7ef;fill-opacity:1;fill-rule:nonzero;stroke:none"
             d="m 0,0 c 6.85,-3.898 13.699,-7.796 20.549,-11.694 -7.274,-4.182 -14.547,-8.364 -21.82,-12.545 l -20.934,11.673 C -14.803,-8.378 -7.402,-4.189 0,0" /></g><g
           transform="translate(129.4357,71.8677)"
           id="g76"><path
             id="path78"
             style="fill:#90dae1;fill-opacity:1;fill-rule:nonzero;stroke:none"
             d="M 0,0 C -6.991,-4.04 -13.982,-8.08 -20.972,-12.12 V 11.694 C -13.982,7.796 -6.991,3.898 0,0" /></g><g
           transform="translate(86.4317,121.6223)"
           id="g80"><path
             id="path82"
             style="fill:#ee4155;fill-opacity:1;fill-rule:nonzero;stroke:none"
             d="m 0,0 c -0.071,-8.505 -0.141,-17.01 -0.212,-25.515 -6.849,-3.969 -13.699,-7.938 -20.549,-11.907 v 23.601 C -13.84,-9.214 -6.92,-4.607 0,0" /></g><g
           transform="translate(86.4317,121.6223)"
           id="g84"><path
             id="path86"
             style="fill:#dd344b;fill-opacity:1;fill-rule:nonzero;stroke:none"
             d="M 0,0 C -6.92,-4.607 -13.84,-9.214 -20.761,-13.821 V 11.694 C -13.84,7.796 -6.92,3.898 0,0" /></g><g
           transform="translate(151.2554,109.5026)"
           id="g88"><path
             id="path90"
             style="fill:#99cf4a;fill-opacity:1;fill-rule:nonzero;stroke:none"
             d="m 0,0 c -6.85,-4.465 -13.699,-8.93 -20.549,-13.395 l -0.212,25.727 C -13.84,16.23 -6.92,20.129 0,24.027 Z" /></g><g
           transform="translate(151.2554,109.5026)"
           id="g92"><path
             id="path94"
             style="fill:#71a73c;fill-opacity:1;fill-rule:nonzero;stroke:none"
             d="m 0,0 v -25.09 c -6.85,3.898 -13.699,7.796 -20.549,11.695 C -13.699,-8.93 -6.85,-4.465 0,0" /></g><g
           transform="translate(108.3574,134.1672)"
           id="g96"><path
             id="path98"
             style="fill:#e58220;fill-opacity:1;fill-rule:nonzero;stroke:none"
             d="m 0,0 c -7.309,-4.182 -14.617,-8.363 -21.926,-12.545 -6.92,3.898 -13.84,7.796 -20.76,11.695 7.273,4.181 14.546,8.363 21.82,12.544 C -13.911,7.796 -6.955,3.898 0,0" /></g></g></g></g></svg>